<svg id="b6b40c09-d46c-4b63-844f-2cb08c51d338" height="512" viewBox="0 0 64 64" width="512" xmlns="http://www.w3.org/2000/svg" xmlns:xlink="http://www.w3.org/1999/xlink" data-name="flat gradient flaticon"><linearGradient id="b73b3830-1210-487d-96f7-c7fc9ca98837" gradientUnits="userSpaceOnUse" x1="4" x2="60" y1="32" y2="32"><stop offset="0" stop-color="#ff81ff"/><stop offset="1" stop-color="#a93aff"/></linearGradient><path d="m42.55164 11.536c.2854-8.13879 12.01458-8.14081 12.3012-.00012a6.1506 6.1506 0 0 1 -12.3012.00012zm1.48636 26.98805-3.53-3.49091a1.11235 1.11235 0 0 1 -.14667-1.40808c1.49377-2.25433 3.6643-5.50116 5.17273-7.764 1.5072-2.00311 1.5838-4.40441-.90918-6.71777-1.61975-.83435-4.33447-2.92017-6.20941-2.80627l-9.33832-.14673a4.95616 4.95616 0 0 0 -3.442 1.32989l-6.22876 5.83765a3.667 3.667 0 0 0 -1.16363 2.63037 3.71082 3.71082 0 0 0 6.28747 2.65961l3.84288-3.84281a1.848 1.848 0 0 1 1.38849-.53778l2.71844.1369c-4.1159 5.81836-7.68274 9.60578-.51831 15.2934.97443.88214 3.03174 2.69891 4.01892 3.59839a2.51382 2.51382 0 0 1 .84094 1.87738v9.26013a4.17543 4.17543 0 0 0 8.35065-.02954l-.09772-13.42548a3.46542 3.46542 0 0 0 -1.03652-2.45435zm-17.49351-2.15119-3.14855 3.882a1.20354 1.20354 0 0 1 -.91919.43994h-7.57819a4.02881 4.02881 0 0 0 .00006 8.05744h11.01032a3.14017 3.14017 0 0 0 2.50329-1.24189c.79981-1.05615 3.78418-4.97717 3.78418-4.97717-.15619-.15075-1.35065-1.19244-1.46673-1.3103a14.95858 14.95858 0 0 1 -4.18519-4.85002zm29.6186-7.95965h-4.74244a1.24437 1.24437 0 0 1 -.8703-.352c-.63226-.61371-1.90423-1.863-2.53253-2.48371-.10907.28113-3.74853 5.71949-4.46875 6.7862l1.29077 1.29071c1.04584.90881 2.375 2.64972 3.94062 2.51294l7.38263.00006a3.87732 3.87732 0 0 0 0-7.7542zm-47.52283-20.56897h1.2738a.97785.97785 0 1 0 0-1.95569h-1.2738a.978.978 0 0 0 0 1.95569zm6.03314.21676h7.35327a.97791.97791 0 0 0 -.00006-1.95562h-7.35321a.97791.97791 0 0 0 0 1.95562zm2.403 3.665a.978.978 0 0 0 0 1.95569h1.27337a.97785.97785 0 1 0 0-1.95569zm-12.11259 2.17238h7.35284a.97792.97792 0 0 0 -.00006-1.95563h-7.35278a.97792.97792 0 0 0 0 1.95563zm1.27386 42.24162h-1.27386a.97866.97866 0 0 0 0 1.95563h1.27386a.97792.97792 0 0 0 0-1.95563zm12.11212-.21679h-7.35279a.978.978 0 0 0 0 1.95569h7.35284a.978.978 0 0 0 -.00005-1.95568zm3.67688-5.62061h-1.2738a.97837.97837 0 0 0 0 1.95563h1.2738a.97792.97792 0 0 0 0-1.95562zm-5.0553.761a.97757.97757 0 0 0 -.97784-.97784h-7.35327a.97784.97784 0 1 0 0 1.95568h7.35327a.97757.97757 0 0 0 .97784-.97778z" fill="url(#b73b3830-1210-487d-96f7-c7fc9ca98837)"/></svg>